<svg width="65" height="73" viewBox="0 0 65 73" fill="none" xmlns="http://www.w3.org/2000/svg">
<path d="M2.16124 68.1538C2.83115 68.5822 3.49485 68.9187 4.15235 69.1635C4.80985 69.4082 5.42393 69.5306 5.99459 69.5306C6.54043 69.5306 6.95602 69.4572 7.24135 69.3103C7.52668 69.1512 7.66935 68.9187 7.66935 68.6128C7.66935 68.4537 7.60732 68.3313 7.48326 68.2456C7.35921 68.1477 7.19173 68.0682 6.98083 68.007C6.78234 67.9458 6.54664 67.8968 6.27371 67.8601C6.00079 67.8234 5.72166 67.7745 5.43633 67.7133C5.16341 67.6643 4.84086 67.6093 4.46869 67.5481C4.10893 67.4746 3.73676 67.3767 3.35218 67.2544C2.96761 67.1197 2.58303 66.9545 2.19846 66.7587C1.82629 66.5629 1.49134 66.3121 1.1936 66.0061C0.895865 65.7002 0.653955 65.3391 0.46787 64.9231C0.294191 64.4947 0.207352 63.993 0.207352 63.4178C0.207352 62.5734 0.374828 61.8759 0.70978 61.3252C1.04473 60.7744 1.46652 60.34 1.97516 60.0218C2.49619 59.6914 3.07306 59.465 3.70574 59.3426C4.33843 59.208 4.95251 59.1407 5.54798 59.1407C6.59006 59.1407 7.52048 59.2937 8.33925 59.5996C9.17043 59.8933 9.96439 60.3278 10.7211 60.9029C10.8204 60.9886 10.8762 61.0926 10.8886 61.215C10.901 61.3374 10.87 61.4475 10.7956 61.5454L9.34411 63.583C9.26968 63.6809 9.17043 63.7421 9.04637 63.7666C8.92232 63.7911 8.81067 63.7666 8.71142 63.6932C8.07873 63.3016 7.48947 63.0262 6.94362 62.8671C6.39777 62.6958 5.89534 62.6101 5.43633 62.6101C5.29987 62.6101 5.1386 62.6162 4.95251 62.6285C4.77883 62.6285 4.61136 62.653 4.45008 62.7019C4.28881 62.7386 4.15235 62.8059 4.0407 62.9038C3.94145 63.0017 3.89183 63.1363 3.89183 63.3077C3.89183 63.479 4.02209 63.632 4.28261 63.7666C4.54312 63.9012 4.84086 64.0175 5.17581 64.1154C5.51076 64.2133 5.83331 64.2928 6.14345 64.354C6.45359 64.403 6.65208 64.4336 6.73892 64.4458C7.18553 64.5315 7.67555 64.66 8.20899 64.8313C8.74243 64.9904 9.23866 65.2351 9.69767 65.5655C10.1691 65.8837 10.5599 66.3059 10.87 66.8322C11.1926 67.3461 11.3538 67.9948 11.3538 68.778C11.3538 69.5122 11.2236 70.1486 10.963 70.6871C10.7025 71.2133 10.3366 71.6477 9.86515 71.9904C9.40614 72.333 8.84788 72.59 8.19038 72.7614C7.54529 72.9205 6.82576 73 6.0318 73C5.38671 73 4.78504 72.9449 4.22678 72.8348C3.66853 72.7369 3.14749 72.5962 2.66367 72.4126C2.17985 72.229 1.72704 72.0149 1.30525 71.7701C0.895865 71.5131 0.517493 71.2439 0.170135 70.9624C0.0708895 70.889 0.015064 70.7911 0.00265835 70.6687C-0.0097473 70.5341 0.0212669 70.4178 0.0957007 70.3199L1.52855 68.2823C1.60299 68.1844 1.70223 68.1232 1.82629 68.0988C1.95034 68.0743 2.062 68.0927 2.16124 68.1538Z" fill="#F9FAFB"/>
<path d="M14.6231 66.0428C14.6231 65.0883 14.8092 64.1888 15.1814 63.3444C15.5535 62.5 16.056 61.7657 16.6886 61.1416C17.3213 60.5052 18.0657 60.0035 18.9217 59.6363C19.7776 59.2692 20.6895 59.0856 21.6571 59.0856C22.6247 59.0856 23.5366 59.2692 24.3925 59.6363C25.2485 60.0035 25.9929 60.5052 26.6256 61.1416C27.2707 61.7657 27.7793 62.5 28.1515 63.3444C28.5236 64.1888 28.7097 65.0883 28.7097 66.0428C28.7097 66.9974 28.5236 67.8968 28.1515 68.7413C27.7793 69.5857 27.2707 70.3261 26.6256 70.9624C25.9929 71.5865 25.2485 72.0822 24.3925 72.4493C23.5366 72.8164 22.6247 73 21.6571 73C20.6895 73 19.7776 72.8164 18.9217 72.4493C18.0657 72.0822 17.3213 71.5865 16.6886 70.9624C16.056 70.3261 15.5535 69.5857 15.1814 68.7413C14.8092 67.8968 14.6231 66.9974 14.6231 66.0428ZM18.3076 66.0428C18.3076 66.5079 18.3944 66.9484 18.5681 67.3645C18.7418 67.7806 18.9775 68.1477 19.2752 68.4659C19.5854 68.7841 19.9451 69.0411 20.3545 69.2369C20.7639 69.4205 21.1981 69.5122 21.6571 69.5122C22.1161 69.5122 22.5503 69.4205 22.9597 69.2369C23.3691 69.0411 23.7288 68.7841 24.039 68.4659C24.3491 68.1477 24.591 67.7806 24.7647 67.3645C24.9384 66.9484 25.0252 66.5079 25.0252 66.0428C25.0252 65.59 24.9384 65.1556 24.7647 64.7395C24.591 64.3112 24.3491 63.944 24.039 63.6381C23.7288 63.3199 23.3691 63.069 22.9597 62.8855C22.5503 62.6897 22.1161 62.5918 21.6571 62.5918C21.1981 62.5918 20.7639 62.6897 20.3545 62.8855C19.9451 63.069 19.5854 63.3199 19.2752 63.6381C18.9775 63.944 18.7418 64.3112 18.5681 64.7395C18.3944 65.1556 18.3076 65.59 18.3076 66.0428Z" fill="#F9FAFB"/>
<path d="M42.7428 69.8243V72.3208C42.7428 72.4432 42.6994 72.5472 42.6126 72.6329C42.5257 72.7185 42.4203 72.7614 42.2962 72.7614H33.0106C32.8741 72.7614 32.7625 72.7185 32.6756 72.6329C32.6012 72.5472 32.564 72.4432 32.564 72.3208V59.7648C32.564 59.6425 32.6012 59.5384 32.6756 59.4528C32.7625 59.3671 32.8741 59.3243 33.0106 59.3243H35.8019C35.9259 59.3243 36.0314 59.3671 36.1182 59.4528C36.205 59.5384 36.2485 59.6425 36.2485 59.7648V68.9432C36.2485 69.0656 36.2857 69.1696 36.3601 69.2552C36.447 69.3409 36.5586 69.3837 36.6951 69.3837H42.2962C42.4203 69.3837 42.5257 69.4266 42.6126 69.5122C42.6994 69.5979 42.7428 69.7019 42.7428 69.8243Z" fill="#F9FAFB"/>
<path d="M49.3904 72.7614H46.5805C46.4441 72.7614 46.3324 72.7185 46.2456 72.6329C46.1711 72.5472 46.1339 72.4432 46.1339 72.3208V59.7832C46.1339 59.6608 46.1711 59.5568 46.2456 59.4711C46.3324 59.3855 46.4441 59.3426 46.5805 59.3426H49.3904C49.5145 59.3426 49.6199 59.3855 49.7067 59.4711C49.7936 59.5568 49.837 59.6608 49.837 59.7832V72.3208C49.837 72.4432 49.7936 72.5472 49.7067 72.6329C49.6199 72.7185 49.5145 72.7614 49.3904 72.7614Z" fill="#F9FAFB"/>
<path d="M55.8074 68.1538C56.4773 68.5822 57.141 68.9187 57.7985 69.1635C58.456 69.4082 59.0701 69.5306 59.6408 69.5306C60.1866 69.5306 60.6022 69.4572 60.8875 69.3103C61.1729 69.1512 61.3155 68.9187 61.3155 68.6128C61.3155 68.4537 61.2535 68.3313 61.1294 68.2456C61.0054 68.1477 60.8379 68.0682 60.627 68.007C60.4285 67.9458 60.1928 67.8968 59.9199 67.8601C59.647 67.8234 59.3678 67.7745 59.0825 67.7133C58.8096 67.6643 58.487 67.6093 58.1149 67.5481C57.7551 67.4746 57.3829 67.3767 56.9984 67.2544C56.6138 67.1197 56.2292 66.9545 55.8446 66.7587C55.4725 66.5629 55.1375 66.3121 54.8398 66.0061C54.542 65.7002 54.3001 65.3391 54.114 64.9231C53.9404 64.4947 53.8535 63.993 53.8535 63.4178C53.8535 62.5734 54.021 61.8759 54.356 61.3252C54.6909 60.7744 55.1127 60.34 55.6213 60.0218C56.1424 59.6914 56.7192 59.465 57.3519 59.3426C57.9846 59.208 58.5987 59.1407 59.1942 59.1407C60.2362 59.1407 61.1667 59.2937 61.9854 59.5996C62.8166 59.8933 63.6106 60.3278 64.3673 60.9029C64.4666 60.9886 64.5224 61.0926 64.5348 61.215C64.5472 61.3374 64.5162 61.4475 64.4417 61.5454L62.9903 63.583C62.9159 63.6809 62.8166 63.7421 62.6926 63.7666C62.5685 63.7911 62.4568 63.7666 62.3576 63.6932C61.7249 63.3016 61.1356 63.0262 60.5898 62.8671C60.0439 62.6958 59.5415 62.6101 59.0825 62.6101C58.946 62.6101 58.7848 62.6162 58.5987 62.6285C58.425 62.6285 58.2575 62.653 58.0963 62.7019C57.935 62.7386 57.7985 62.8059 57.6869 62.9038C57.5876 63.0017 57.538 63.1363 57.538 63.3077C57.538 63.479 57.6683 63.632 57.9288 63.7666C58.1893 63.9012 58.487 64.0175 58.822 64.1154C59.1569 64.2133 59.4795 64.2928 59.7896 64.354C60.0998 64.403 60.2983 64.4336 60.3851 64.4458C60.8317 64.5315 61.3217 64.66 61.8552 64.8313C62.3886 64.9904 62.8848 65.2351 63.3438 65.5655C63.8153 65.8837 64.206 66.3059 64.5162 66.8322C64.8387 67.3461 65 67.9948 65 68.778C65 69.5122 64.8697 70.1486 64.6092 70.6871C64.3487 71.2133 63.9827 71.6477 63.5113 71.9904C63.0523 72.333 62.4941 72.59 61.8366 72.7614C61.1915 72.9205 60.4719 73 59.678 73C59.0329 73 58.4312 72.9449 57.873 72.8348C57.3147 72.7369 56.7937 72.5962 56.3098 72.4126C55.826 72.229 55.3732 72.0149 54.9514 71.7701C54.542 71.5131 54.1637 71.2439 53.8163 70.9624C53.7171 70.889 53.6612 70.7911 53.6488 70.6687C53.6364 70.5341 53.6674 70.4178 53.7419 70.3199L55.1747 68.2823C55.2492 68.1844 55.3484 68.1232 55.4725 68.0988C55.5965 68.0743 55.7082 68.0927 55.8074 68.1538Z" fill="#F9FAFB"/>
<mask id="mask0_355_14756" style="mask-type:alpha" maskUnits="userSpaceOnUse" x="0" y="0" width="62" height="61">
<ellipse cx="31.1115" cy="30.1165" rx="30.5295" ry="30.1165" fill="#D9D9D9"/>
</mask>
<g mask="url(#mask0_355_14756)">
<path fill-rule="evenodd" clip-rule="evenodd" d="M27.3326 -5.16284C26.3691 -5.16284 25.5881 -4.39235 25.5881 -3.4419V15.0845L12.5319 2.90344C11.8319 2.25035 10.7278 2.28071 10.0657 2.97124L5.27078 7.9725C4.60873 8.66303 4.6395 9.75225 5.33951 10.4053L19.3958 23.5195H1.16446C0.200979 23.5195 -0.580078 24.29 -0.580078 25.2404V32.1242C-0.580078 33.0746 0.200981 33.8451 1.16447 33.8451L61.642 33.8451C62.6055 33.8451 63.3865 33.0746 63.3865 32.1242V25.2404C63.3865 24.29 62.6055 23.5195 61.642 23.5195H41.5885L55.6447 10.4053C56.3447 9.75225 56.3755 8.66303 55.7134 7.9725L50.9185 2.97124C50.2565 2.28071 49.1523 2.25035 48.4523 2.90344L36.0553 14.4695V-3.4419C36.0553 -4.39235 35.2743 -5.16284 34.3108 -5.16284H27.3326Z" fill="#FBDB35"/>
<path fill-rule="evenodd" clip-rule="evenodd" d="M-0.580078 38.4343C-0.580078 37.4839 0.200979 36.7134 1.16446 36.7134L61.642 36.7134C62.6055 36.7134 63.3865 37.4839 63.3865 38.4343V45.3181C63.3865 46.2685 62.6055 47.039 61.642 47.039H53.6271L49.7175 53.5572C49.1913 54.4345 48.9282 54.8732 48.5865 55.0217C48.2884 55.1514 47.9488 55.1517 47.6504 55.0227C47.3085 54.8748 47.0444 54.4367 46.5164 53.5605L42.5864 47.039L1.16447 47.039C0.20098 47.039 -0.580078 46.2685 -0.580078 45.3181V38.4343Z" fill="#7EA7F7"/>
</g>
</svg>
